%
M48
M71
T01C0.600
T02C0.813
T03C1.016
%
T01
X-5398Y0
X-5398Y12065
X33973Y4128
X85725Y2223
X92392Y2223
X94615Y0
X92392Y9843
X85725Y10319
X94615Y12065
T02
X41116Y2857
X47149Y3175
X57864Y3413
X54769Y3175
X65484Y3413
X92392Y2223
X92392Y9843
X41116Y7937
X4128Y8573
X9208Y6032
X4128Y3492
T03
X21114Y10478
X21114Y1905
M30
